<svg width="256" height="256" viewBox="0 0 256 256" fill="none" xmlns="http://www.w3.org/2000/svg">
<path d="M90.6451 33.8717C98.6422 30.6127 106.879 28.5483 115.336 27.4301C122.515 26.4809 129.755 26.3453 136.963 26.9922C156.46 28.7421 174.109 35.4335 189.675 47.353C204.848 58.9711 215.826 73.5373 222.613 90.9937H210.553C210.279 90.4312 210.07 89.8258 209.898 89.2145C211.877 88.7371 212.144 88.2902 211.802 86.2338C211.799 86.2202 211.797 86.2065 211.795 86.1927C211.786 86.1413 211.776 86.0893 211.766 86.0368C211.76 86.0059 211.754 85.9749 211.748 85.9437L211.747 85.9416L211.747 85.9377C211.667 85.5277 211.583 85.0988 211.702 84.7505C212.127 83.5093 211.576 82.5607 211.016 81.598C210.981 81.5376 210.946 81.4772 210.911 81.4166L210.88 81.3617C209.843 79.5524 208.773 77.7644 207.462 76.108C207.731 77.1033 207.57 78.054 207.41 79.0032L207.41 79.0042C207.363 79.2824 207.316 79.5604 207.28 79.8394C207.043 81.6789 207.171 83.4164 208.987 84.5294C209.228 84.6769 209.45 84.8737 209.638 85.0856C210.187 85.7048 209.866 87.4364 209.103 87.6842L209.047 87.7023L208.956 87.7322C208.161 87.9923 207.332 88.2637 206.484 88.0127C205.582 87.7459 204.83 88.0237 203.885 88.5022C204.191 88.6886 204.477 88.8732 204.754 89.0515C205.35 89.4354 205.9 89.7894 206.486 90.0663C207.051 90.3333 207.282 90.6278 207.291 90.9937H193.915C193.44 89.3053 192.876 87.6295 191.289 86.4961L191.219 86.4464C190.788 86.1403 190.332 85.8165 190.257 85.1926C190.209 84.7963 190.152 84.4007 190.096 84.005L190.095 84.0023C189.915 82.7353 189.734 81.468 189.83 80.1817C189.926 78.887 189.628 77.7281 188.979 76.6006C187.888 74.7045 186.936 72.7437 187.014 70.4632C187.032 69.9453 186.679 69.697 186.273 69.5149C184.933 68.9148 183.775 68.0418 182.618 67.1685C182.29 66.9216 181.963 66.6748 181.632 66.434C181.556 66.3793 181.483 66.312 181.409 66.2441C181.121 65.9795 180.824 65.7064 180.366 66.1427C179.92 66.5669 180.2 66.899 180.442 67.1863C180.488 67.2404 180.532 67.2928 180.57 67.344C181.055 68.0012 180.802 68.3465 180.203 68.6898C180.125 68.7343 180.043 68.7755 179.96 68.8174C179.611 68.9929 179.241 69.1792 179.058 69.6699C181.212 70.3595 182.498 72 183.72 73.6816C184.495 74.7471 185.475 75.5494 186.535 76.2896C186.568 76.3126 186.601 76.3347 186.636 76.3566C186.656 76.3694 186.676 76.3821 186.696 76.3947C186.718 76.4081 186.74 76.4215 186.762 76.4349L186.762 76.4351C187.047 76.6097 187.338 76.7882 187.445 77.1592C187.22 77.4427 186.898 77.5195 186.585 77.594L186.583 77.5944C186.557 77.6006 186.532 77.6067 186.506 77.613C185.269 77.9141 184.082 78.2659 183.542 79.6127C183.41 79.9415 183.117 80.075 182.743 79.9537C180.112 79.1018 177.663 78.05 176.564 75.1791C176.082 73.9221 175.588 72.6666 174.532 71.6938C172.787 70.0854 170.784 68.8406 168.793 67.6033L168.791 67.6021L168.79 67.6009L168.788 67.5997C168.6 67.483 168.412 67.3663 168.225 67.2495C166.724 66.313 165.994 64.9427 165.219 63.4874C165.033 63.1397 164.846 62.7872 164.644 62.4346C165.032 62.2775 165.397 62.0954 165.755 61.9167C166.608 61.4907 167.423 61.0842 168.413 61.0826C169.078 61.0816 169.743 61.0239 170.409 60.9662C170.742 60.9373 171.075 60.9084 171.409 60.8866C171.744 60.8647 172.087 60.8339 172.152 60.4266C172.259 59.7586 172.207 59.1101 171.539 58.7349C171.48 58.7022 171.422 58.6673 171.363 58.6322C170.873 58.3417 170.358 58.0358 169.924 58.8386C169.816 59.0404 169.615 59.1343 169.382 59.1209C169.15 59.1076 168.917 59.1031 168.684 59.0986C167.896 59.0834 167.111 59.0682 166.391 58.7133C166.32 58.3072 166.47 58.0025 166.611 57.7171L166.63 57.6784C166.639 57.6611 166.647 57.6438 166.655 57.6266C166.95 57.0163 166.809 56.5792 166.212 56.3106C165.306 55.9033 164.751 55.1999 164.381 54.3063C164.172 53.8001 163.788 53.4257 163.374 53.0705C161.091 51.113 158.815 49.1475 156.543 47.1766C155.04 45.8719 154.811 45.8686 153.338 47.2178C152.499 47.9858 150.491 48.3342 149.647 47.8251C147.822 46.7227 145.819 46.3495 143.721 46.1787C142.878 46.1102 142.138 46.366 141.405 46.6193C140.946 46.7781 140.49 46.9358 140.013 47.012C136.865 47.5154 133.831 47.0462 130.989 45.5031C130.396 45.181 130.06 44.8076 129.987 44.1281C129.98 44.0584 129.977 43.9857 129.973 43.9118C129.958 43.6005 129.942 43.2692 129.624 43.0546C128.923 42.5811 126.11 42.5477 125.418 43.0674C124.804 43.5282 124.151 43.7212 123.409 43.5945C121.553 43.2775 119.705 43.4423 117.85 43.6141C117.253 43.6694 116.965 43.845 116.862 44.4747C116.844 44.5857 116.835 44.7032 116.826 44.8225C116.792 45.2669 116.755 45.7353 116.242 45.9782C116.216 45.9905 116.19 46.0029 116.164 46.0153C116.122 46.0354 116.08 46.0556 116.038 46.0758L116.037 46.0763L116.036 46.0768C115.174 46.4892 114.326 46.8947 113.283 46.7016C112.595 46.5745 111.869 46.6128 111.161 46.6503L111.032 46.657C109.8 46.721 109.043 47.5683 109.187 48.7536C109.273 49.4561 108.977 49.748 108.38 50.0421C107.341 50.5538 106.263 50.5261 105.185 50.4985C104.841 50.4897 104.498 50.4809 104.156 50.4896L104.021 50.4929C102.499 50.5303 102.416 50.5323 102.103 52.1413C101.845 53.4697 101.512 54.6015 100.017 55.0155C99.7457 55.0907 99.512 55.3069 99.2797 55.5219C99.1837 55.6107 99.0879 55.6993 98.9899 55.7777C98.6604 56.0408 98.3325 56.3059 98.0046 56.5709L98.0043 56.5711L98.0035 56.5718C96.3289 57.9252 94.6553 59.2778 92.7833 60.3732C92.0052 60.8284 91.2081 60.8365 90.4103 60.8445C90.0084 60.8486 89.6061 60.8527 89.2061 60.9139C89.1351 60.4389 89.3466 60.2156 89.5447 60.0064C89.59 59.9586 89.6346 59.9115 89.675 59.8623C89.8485 59.6507 90.0272 59.4431 90.2059 59.2355C90.5414 58.8456 90.877 58.4557 91.1776 58.0406C91.7183 57.294 91.4006 56.3319 90.5586 56.3572C89.0347 56.4029 88.4062 55.5061 87.9135 54.3147C87.7351 53.8835 87.5365 53.4605 87.3379 53.0376C87.2475 52.845 87.157 52.6524 87.0685 52.4591C86.9268 52.1496 86.8318 51.8069 87.1347 51.57C87.5139 51.2736 87.8767 50.9487 88.2397 50.6238C89.4636 49.5281 90.6887 48.4313 92.5424 48.4197C92.9273 48.4173 93.1354 48.1771 93.3614 47.9162C93.3755 47.9 93.3896 47.8836 93.4039 47.8673C94.4531 46.6638 95.1494 45.3507 94.8567 43.685C94.6861 42.7146 95.1474 42.2842 96.0719 42.0584C97.0023 41.8311 97.9143 41.5277 98.826 41.2244C99.137 41.1209 99.448 41.0175 99.7597 40.917L99.7845 40.9091L99.8036 40.9031C99.821 40.8976 99.8385 40.8921 99.856 40.8867C100.2 40.7793 100.562 40.6664 100.659 40.2476C100.698 40.0807 100.74 39.9141 100.782 39.7477L100.782 39.7472C100.981 38.9575 101.179 38.172 101.029 37.385C100.759 37.1759 100.543 37.2444 100.336 37.3102C100.306 37.3198 100.276 37.3293 100.246 37.338C97.7676 38.0488 95.3592 38.9507 92.9621 39.8977C81.2169 44.5378 70.8503 51.3236 61.8403 60.1301C52.7773 68.9884 45.7461 79.2766 40.7799 90.9617C40.7753 90.9724 40.7708 90.9831 40.7663 90.9937H33.8327C41.2194 72.2714 53.3168 57.0248 69.864 45.1552C76.2864 40.5483 83.2147 36.8213 90.6451 33.8717Z" fill="white"/>
<path d="M32.3312 160.841C37.3418 175.513 45.4561 188.452 56.5525 199.666C64.5465 207.745 73.6964 214.267 83.9329 219.252C95.7141 224.99 108.151 228.274 121.201 229.214C128.355 229.73 135.49 229.421 142.604 228.421C151.765 227.133 160.55 224.581 169.005 220.864C180.468 215.824 190.628 208.846 199.538 200.069C205.814 193.887 211.2 186.99 215.675 179.387C219.192 173.414 222.038 167.23 224.229 160.841H217.38C213.838 170.501 208.794 179.38 202.25 187.51C195.611 195.757 187.82 202.71 178.71 208.44C178.566 207.544 178.8 206.995 179.052 206.449C180.171 204.02 181.689 201.877 183.593 199.995C184.073 199.521 184.522 199.018 184.971 198.514C185.309 198.136 185.646 197.757 185.996 197.392C186.439 196.929 186.434 196.553 185.959 196.127C185.74 195.93 185.533 195.719 185.326 195.508L185.326 195.507L185.325 195.506C185.081 195.257 184.836 195.007 184.572 194.782C183.916 194.222 183.143 193.931 182.288 194.214C178.219 195.563 174.016 195.608 169.81 195.653L169.532 195.656C169.384 195.658 169.236 195.659 169.087 195.661L168.703 195.666C168.043 195.674 167.654 195.405 167.317 194.868C166.856 194.137 166.378 193.417 165.899 192.697L165.896 192.691C165.523 192.131 165.151 191.57 164.787 191.005C164.479 190.526 164.138 190.232 163.515 190.185C162.054 190.075 160.597 189.893 159.141 189.711L159.044 189.699C155.506 189.257 152.239 188.033 149.304 186.034C147.967 185.123 146.589 184.801 145.067 185.099C142.99 185.507 140.945 185.223 138.908 184.941L138.907 184.941C138.472 184.88 138.037 184.82 137.602 184.766C136.493 184.63 135.556 184.869 134.59 185.227C134.015 185.441 133.502 185.461 132.966 185.115C132.8 185.007 132.615 184.928 132.429 184.849L132.429 184.848C132.215 184.757 132.002 184.666 131.82 184.533C129.403 182.763 127.174 183.706 124.991 185.005C124.01 185.589 123.078 186.263 122.159 186.944C121.704 187.281 121.305 187.345 120.777 187.134C119.748 186.722 118.68 186.388 117.572 186.299C115.827 186.157 114.752 185.009 113.695 183.882C113.543 183.719 113.391 183.557 113.237 183.398C112.63 182.77 112.608 181.825 113.072 180.98C113.627 179.971 114.019 178.911 114.244 177.772C114.364 177.164 114.208 176.776 113.797 176.345C111.895 174.353 109.456 173.701 106.838 173.476C105.675 173.377 105.097 172.346 105.834 171.399C106.839 170.108 107.266 168.626 107.678 167.108C107.985 165.98 106.538 164.361 105.355 164.568C105.303 164.577 105.251 164.586 105.199 164.595L105.188 164.596C103.841 164.83 102.512 165.06 101.729 166.48C101.365 167.141 99.7328 167.338 98.9679 167.015C97.8857 166.559 97.0041 165.838 96.1111 165.108L96.1108 165.108C95.9013 164.936 95.6912 164.765 95.4777 164.596C94.1062 163.51 93.7183 162.223 93.669 160.841H81.5324C81.7927 161.037 82.0755 161.217 82.3834 161.38C83.9005 162.181 84.9243 163.492 85.9468 164.802L85.9474 164.803C86.359 165.33 86.7705 165.857 87.2138 166.35C87.9944 167.219 88.8256 167.94 89.8662 168.472C90.8736 168.987 91.8889 169.488 92.9041 169.988L92.905 169.989C95.58 171.307 98.2554 172.625 100.789 174.216C103.005 175.608 104.871 177.39 106.364 179.499C106.948 180.324 107.185 181.338 107.42 182.348L107.42 182.349C107.514 182.752 107.608 183.154 107.724 183.543C107.954 184.318 108.306 184.868 109.054 185.224C110.054 185.701 111.026 186.243 111.98 186.809C113.645 187.799 115.369 188.444 117.367 188.187C118.027 188.102 118.672 188.28 119.315 188.458C119.577 188.531 119.838 188.603 120.1 188.658C120.571 188.756 120.597 189.018 120.505 189.452C120.31 190.376 120.148 191.307 119.986 192.238C119.927 192.572 119.869 192.906 119.809 193.239C119.502 194.959 118.728 196.134 116.808 196.472C114.437 196.889 113.327 198.753 112.826 201.059C112.265 203.637 113.373 205.154 115.204 206.442C119.1 209.182 121.823 212.929 124.338 216.864C124.807 217.598 125.305 218.161 126.253 218.178C127.133 218.193 127.337 218.718 127.311 219.539C127.274 220.729 126.684 221.643 126.057 222.561C125.801 222.934 125.415 222.913 125.043 222.893C124.987 222.89 124.93 222.887 124.875 222.885C120.726 222.761 116.607 222.34 112.51 221.672C102.505 220.038 93.0291 216.837 84.0633 212.112C74.537 207.091 66.123 200.632 58.7746 192.754C50.0579 183.409 43.5192 172.771 39.1407 160.841H32.3312Z" fill="white"/>
<path d="M84.1164 90.9937H129.379C129.338 90.468 128.959 89.8085 128.302 88.7906C128.239 88.6886 128.232 88.6738 128.232 88.6719L128.177 88.686L128.089 88.7091C126.794 89.0483 125.504 89.3865 124.221 88.5444C123.831 88.2885 123.563 88.0665 123.523 87.57C123.507 87.3623 123.488 87.1549 123.468 86.9477C123.388 86.0877 123.307 85.2299 123.444 84.36C123.524 83.8521 123.525 83.3087 122.795 83.2526C122.754 83.2494 122.713 83.2459 122.671 83.2424C122.107 83.1947 121.544 83.147 121.347 83.9353C121.174 84.6284 120.991 85.3261 120.727 85.9875C120.241 87.2019 118.906 87.5586 118.238 86.7031C117.923 86.2993 117.995 85.8767 118.069 85.436L118.08 85.3734C118.358 83.7082 118.486 82.048 117.916 80.4072C117.899 80.359 117.883 80.3104 117.866 80.262C117.734 79.865 117.602 79.4711 117.186 79.2745C115.883 78.6578 115.272 77.4875 114.798 76.238C114.525 75.5195 114.078 75.3194 113.34 75.2664C111.825 75.1576 110.512 75.4202 109.558 76.6994C109.636 77.1241 109.924 77.3909 110.194 77.6413L110.228 77.6726C111.07 78.4559 111.476 79.4033 111.394 80.5461C111.345 81.2408 111.774 81.6235 112.199 82.0021L112.2 82.0023C112.303 82.0942 112.406 82.1859 112.501 82.2818L112.531 82.3114C113.768 83.5496 113.771 83.553 112.976 85.2135C112.782 85.2873 112.663 85.1667 112.552 85.0549C112.541 85.0431 112.529 85.0314 112.517 85.0201L112.094 84.6041C108.94 81.5065 105.785 78.4081 102.984 74.9778C102.432 74.3022 102.056 73.5174 101.679 72.7325C101.496 72.3522 101.314 71.9719 101.111 71.6039C101.002 71.4052 100.995 71.1012 101.047 70.8703C101.38 69.413 101.234 67.9622 101.088 66.512L101.088 66.5114C101.059 66.2209 101.029 65.9304 101.004 65.6399C100.938 64.8874 99.7255 64.0098 98.5529 63.9219C98.2659 63.9004 97.9784 63.8623 97.6907 63.8241C96.7133 63.6945 95.7339 63.5647 94.7653 64.0849C94.4156 64.2728 94.0461 64.1237 93.6841 63.9776C93.5611 63.928 93.439 63.8787 93.3188 63.8431C91.6019 63.3345 90.9707 63.5809 90.1248 65.1075C89.2099 66.7585 89.1284 66.7919 87.3862 66.2278C85.0307 65.4651 83.5491 66.0168 82.1585 68.1229C81.5845 68.9922 81.054 69.8815 80.6371 70.8339C80.4073 71.3589 80.0754 71.4965 79.5274 71.3368C78.8634 71.1433 78.251 70.9105 77.7777 70.3656C77.543 70.0954 77.2773 69.8522 76.997 69.5954L76.9966 69.5951C76.8675 69.4768 76.7351 69.3556 76.6012 69.2276C76.2839 70.7288 76.7435 71.6999 77.8444 72.4709C79.0435 73.3106 80.3394 73.9722 81.636 74.6341C82.5372 75.0942 83.4387 75.5545 84.3084 76.0748C86.2055 77.21 86.7481 78.8935 86.8681 80.7983C86.9752 82.5 86.8113 84.2142 86.1828 85.8574C85.5231 87.5821 84.8251 89.2899 84.1164 90.9937Z" fill="white"/>
<path d="M120.734 160.841H119.037C119.333 161.123 119.699 161.049 120.073 160.974C120.19 160.95 120.308 160.927 120.425 160.914C120.544 160.9 120.646 160.876 120.734 160.841Z" fill="white"/>
<path d="M15.5413 155.545L15.567 155.571L15.5934 155.597C19.3533 159.278 24.939 160.737 31.5229 160.737H53.5504C60.1258 160.737 65.707 159.282 69.4181 155.571C73.1765 151.812 74.6725 146.216 74.6725 139.615V122.493C75.4545 125.808 76.8522 128.658 79.0219 130.874L79.0477 130.9L79.074 130.926C82.8339 134.608 88.4196 136.066 95.0035 136.066H111.769V140.496C111.769 141.073 111.624 141.218 111.563 141.279L111.56 141.281L111.56 141.282C111.555 141.287 111.542 141.301 111.481 141.323C111.402 141.352 111.213 141.402 110.863 141.402C105.276 141.402 94.4723 140.967 78.3658 140.085L74.6745 139.883V143.58V155.475V158.698L77.8865 158.963C84.3253 159.495 90.5613 159.909 96.5944 160.204L96.604 160.205L96.6137 160.205L104.72 160.558L104.734 160.558L104.749 160.559C108.133 160.678 111.347 160.737 114.388 160.737C120.609 160.737 125.924 159.285 129.55 155.659C133.177 152.033 134.629 146.717 134.629 140.496V136.091C134.629 129.87 133.177 124.554 129.55 120.928L127.076 123.403L129.55 120.928C125.924 117.302 120.609 115.85 114.388 115.85H98.5279C97.928 115.85 97.5456 115.774 97.3218 115.699C97.115 115.63 97.0508 115.566 97.0378 115.553C97.0249 115.54 96.9611 115.476 96.8921 115.269C96.8175 115.045 96.7413 114.663 96.7413 114.063V112.301C96.7413 111.701 96.8175 111.319 96.8921 111.095C96.9611 110.888 97.0249 110.824 97.0378 110.811C97.0508 110.798 97.115 110.734 97.3218 110.665C97.5456 110.591 97.928 110.514 98.5279 110.514H125.93H129.43V107.014V94.679V91.179H125.93H95.0035C88.4029 91.179 82.8062 92.675 79.0478 96.4334C76.5084 98.9727 75.0253 102.388 74.3419 106.398C73.7202 102.005 72.184 98.2744 69.4181 95.5521C65.7089 91.7835 60.1274 90.2979 53.5504 90.2979H31.5229C24.9223 90.2979 19.3256 91.7939 15.5672 95.5523L15.5672 95.5523C11.8561 99.2633 10.4009 104.845 10.4009 111.42V139.615C10.4009 146.199 11.8597 151.785 15.5413 155.545ZM187.953 159.856H191.453V156.356V144.021V140.521H187.953H158.412V134.745H180.904H184.404V131.245V118.909V115.409H180.904H158.412V110.514H187.953H191.453V107.014V94.679V91.179H187.953H139.052H135.552V94.679V156.356V159.856H139.052H187.953ZM243.882 159.856H247.382V156.356V144.021V140.521H243.882H214.341V134.745H236.833H240.333V131.245V118.909V115.409H236.833H214.341V110.514H243.882H247.382V107.014V94.679V91.179H243.882H194.981H191.481V94.679V156.356V159.856H194.981H243.882ZM50.026 109.633C50.6259 109.633 51.0083 109.709 51.2321 109.784C51.439 109.853 51.5031 109.917 51.5161 109.93C51.5291 109.943 51.5929 110.007 51.6618 110.214C51.7365 110.438 51.8127 110.82 51.8127 111.42V139.615C51.8127 140.215 51.7365 140.597 51.6618 140.821C51.5929 141.028 51.5291 141.092 51.5161 141.105C51.5031 141.118 51.439 141.182 51.2321 141.251C51.0083 141.326 50.6259 141.402 50.026 141.402H35.0473C34.4474 141.402 34.065 141.326 33.8412 141.251C33.6344 141.182 33.5702 141.118 33.5572 141.105C33.5443 141.092 33.4805 141.028 33.4115 140.821C33.3369 140.597 33.2607 140.215 33.2607 139.615V111.42C33.2607 110.82 33.3369 110.438 33.4115 110.214C33.4805 110.007 33.5443 109.943 33.5572 109.93C33.5702 109.917 33.6344 109.853 33.8412 109.784C34.065 109.709 34.4474 109.633 35.0473 109.633H50.026Z" fill="white" stroke="#121212" stroke-width="7"/>
</svg>
