/* XPM */
static char * osee_24x24_xpm[] = {
"24 24 462 2",
"  	c #000000",
". 	c #000001",
"+ 	c #0A0B13",
"@ 	c #1E212E",
"# 	c #2A2F40",
"$ 	c #2C3343",
"% 	c #2B3041",
"& 	c #202738",
"* 	c #14192A",
"= 	c #0B0E19",
"- 	c #000103",
"; 	c #101423",
"> 	c #353B52",
", 	c #5F657E",
"' 	c #656C7F",
") 	c #656B7E",
"! 	c #62657A",
"~ 	c #555A6E",
"{ 	c #4A4E5E",
"] 	c #404554",
"^ 	c #2F3344",
"/ 	c #25293F",
"( 	c #131725",
"_ 	c #020103",
": 	c #04040B",
"< 	c #364262",
"[ 	c #5F6A81",
"} 	c #707792",
"| 	c #787D94",
"1 	c #8388A0",
"2 	c #868C9C",
"3 	c #848897",
"4 	c #818495",
"5 	c #52576E",
"6 	c #555A72",
"7 	c #434A5F",
"8 	c #444A58",
"9 	c #212639",
"0 	c #131A34",
"a 	c #07080D",
"b 	c #010000",
"c 	c #090B19",
"d 	c #5B668F",
"e 	c #6C769A",
"f 	c #929AAE",
"g 	c #9198A3",
"h 	c #838A95",
"i 	c #7D858E",
"j 	c #626777",
"k 	c #80848F",
"l 	c #838796",
"m 	c #767C86",
"n 	c #424860",
"o 	c #3D4559",
"p 	c #353E57",
"q 	c #393F53",
"r 	c #23273C",
"s 	c #161E38",
"t 	c #070B16",
"u 	c #05050D",
"v 	c #7079A0",
"w 	c #7680A5",
"x 	c #7781A6",
"y 	c #667292",
"z 	c #838AA6",
"A 	c #9EA6AC",
"B 	c #92969D",
"C 	c #92999E",
"D 	c #676A70",
"E 	c #5B5E60",
"F 	c #656C85",
"G 	c #515974",
"H 	c #404452",
"I 	c #5B6175",
"J 	c #33394F",
"K 	c #1F2539",
"L 	c #1D233C",
"M 	c #04060E",
"N 	c #4D5786",
"O 	c #626A99",
"P 	c #8C94B2",
"Q 	c #68719A",
"R 	c #ABB0C6",
"S 	c #7C839F",
"T 	c #B2B7C2",
"U 	c #48554B",
"V 	c #979D9C",
"W 	c #C1C7CB",
"X 	c #797E7C",
"Y 	c #47515F",
"Z 	c #323C5E",
"` 	c #333B4E",
" .	c #535959",
"..	c #4B5057",
"+.	c #343D57",
"@.	c #141A3A",
"#.	c #171B32",
"$.	c #181E36",
"%.	c #141A37",
"&.	c #525D96",
"*.	c #4D598E",
"=.	c #374179",
"-.	c #686F98",
";.	c #9DA4BD",
">.	c #515881",
",.	c #939AA6",
"'.	c #ADB3B1",
").	c #CBCFD1",
"!.	c #909289",
"~.	c #4D5B4A",
"{.	c #303B30",
"].	c #535B4B",
"^.	c #6E797F",
"/.	c #515855",
"(.	c #2F3B4C",
"_.	c #17223C",
":.	c #131C40",
"<.	c #20263F",
"[.	c #12172C",
"}.	c #0A0F20",
"|.	c #323F7C",
"1.	c #4C5591",
"2.	c #303A79",
"3.	c #6B75A2",
"4.	c #70759E",
"5.	c #9EA4BC",
"6.	c #6A6F95",
"7.	c #AEB5BF",
"8.	c #7F8476",
"9.	c #868476",
"0.	c #616148",
"a.	c #68785D",
"b.	c #646E5B",
"c.	c #646D79",
"d.	c #B2B7B9",
"e.	c #485749",
"f.	c #3C4E43",
"g.	c #1F2946",
"h.	c #161D46",
"i.	c #282E4B",
"j.	c #0A0F28",
"k.	c #11172F",
"l.	c #010204",
"m.	c #0E1222",
"n.	c #36448B",
"o.	c #3B4784",
"p.	c #333E78",
"q.	c #8084A6",
"r.	c #777FA5",
"s.	c #A1A7BD",
"t.	c #C1C3D2",
"u.	c #C2C6C6",
"v.	c #868579",
"w.	c #524E35",
"x.	c #696344",
"y.	c #484F2C",
"z.	c #2C3C1A",
"A.	c #717D6E",
"B.	c #4F5D57",
"C.	c #6A7677",
"D.	c #314148",
"E.	c #0E1844",
"F.	c #333856",
"G.	c #2E324F",
"H.	c #0D122E",
"I.	c #0D1329",
"J.	c #070B15",
"K.	c #222A4E",
"L.	c #424F91",
"M.	c #484D72",
"N.	c #717070",
"O.	c #A4A4A3",
"P.	c #262725",
"Q.	c #8F92A8",
"R.	c #696F88",
"S.	c #42413E",
"T.	c #AEADAE",
"U.	c #676668",
"V.	c #51533B",
"W.	c #434238",
"X.	c #6D6E6D",
"Y.	c #6C6D6A",
"Z.	c #6B6B6B",
"`.	c #474944",
" +	c #666667",
".+	c #6E6D6C",
"++	c #6D6D6E",
"@+	c #6D6D6A",
"#+	c #545853",
"$+	c #090C25",
"%+	c #0D1224",
"&+	c #303B6F",
"*+	c #262E5F",
"=+	c #CFD0CE",
"-+	c #FCFCFB",
";+	c #F3F2F0",
">+	c #FFFFFF",
",+	c #5E5F5E",
"'+	c #6A6B6E",
")+	c #89898A",
"!+	c #919291",
"~+	c #6B6B66",
"{+	c #EFEFEF",
"]+	c #EEEEEF",
"^+	c #B5B6B3",
"/+	c #6B6B6E",
"(+	c #EDEEEE",
"_+	c #EDEDEC",
":+	c #BEBEBE",
"<+	c #03071B",
"[+	c #11172E",
"}+	c #344180",
"|+	c #414357",
"1+	c #636368",
"2+	c #797C92",
"3+	c #C2C2C0",
"4+	c #D6D7D6",
"5+	c #6C6B6D",
"6+	c #EAEAE9",
"7+	c #565756",
"8+	c #584936",
"9+	c #6B6969",
"0+	c #69696A",
"a+	c #5A5A59",
"b+	c #303031",
"c+	c #616161",
"d+	c #5A5A5A",
"e+	c #2C2C2C",
"f+	c #171B37",
"g+	c #56649B",
"h+	c #4C4E5B",
"i+	c #515059",
"j+	c #545A82",
"k+	c #AFAEAB",
"l+	c #E2E3E1",
"m+	c #3C3C46",
"n+	c #2B2B2C",
"o+	c #D5D6D3",
"p+	c #C4C4C4",
"q+	c #686864",
"r+	c #A7A8A8",
"s+	c #9FA09E",
"t+	c #565655",
"u+	c #6B6A6B",
"v+	c #A3A3A2",
"w+	c #9F9F9F",
"x+	c #51504C",
"y+	c #161A3B",
"z+	c #11182E",
"A+	c #4B5689",
"B+	c #1F2442",
"C+	c #D2D4D2",
"D+	c #5D5C5D",
"E+	c #9A9A99",
"F+	c #939491",
"G+	c #F9F9F9",
"H+	c #CECECE",
"I+	c #D3D4D5",
"J+	c #6D6B67",
"K+	c #8D8C90",
"L+	c #808184",
"M+	c #696A69",
"N+	c #666668",
"O+	c #858786",
"P+	c #838285",
"Q+	c #6C6C6A",
"R+	c #0F1533",
"S+	c #1D2035",
"T+	c #2F3A65",
"U+	c #C5CDEC",
"V+	c #2F3137",
"W+	c #CACBCA",
"X+	c #EBEBE9",
"Y+	c #8D8C88",
"Z+	c #171B3F",
"`+	c #0D101F",
" @	c #B1AFB1",
".@	c #EFEEEE",
"+@	c #C3C3C4",
"@@	c #1D2315",
"#@	c #5E5F56",
"$@	c #CCCACB",
"%@	c #C9C8C8",
"&@	c #C6C7C6",
"*@	c #A2A3A2",
"=@	c #51515A",
"-@	c #CBCAC8",
";@	c #C9C9C8",
">@	c #C9C9CA",
",@	c #ABAAA8",
"'@	c #0A102B",
")@	c #0C1122",
"!@	c #141937",
"~@	c #6E7DBB",
"{@	c #A3AAD1",
"]@	c #757BA8",
"^@	c #2F3570",
"/@	c #353B73",
"(@	c #44497B",
"_@	c #6C6E95",
":@	c #34385F",
"<@	c #514F69",
"[@	c #727383",
"}@	c #37365B",
"|@	c #181E3F",
"1@	c #6D786B",
"2@	c #647166",
"3@	c #9A9F90",
"4@	c #AAAEB3",
"5@	c #2F335B",
"6@	c #262A52",
"7@	c #545C69",
"8@	c #4C585B",
"9@	c #2F3C48",
"0@	c #1D2C46",
"a@	c #0A0C16",
"b@	c #010105",
"c@	c #4C59A9",
"d@	c #5560A6",
"e@	c #334289",
"f@	c #4D5591",
"g@	c #5A6196",
"h@	c #53588C",
"i@	c #222662",
"j@	c #64678E",
"k@	c #4D4F77",
"l@	c #1F2051",
"m@	c #4A4F72",
"n@	c #151748",
"o@	c #121449",
"p@	c #1B1F50",
"q@	c #162557",
"r@	c #929B9A",
"s@	c #666F85",
"t@	c #606F6A",
"u@	c #7E858B",
"v@	c #56636A",
"w@	c #3F4B55",
"x@	c #1E2837",
"y@	c #010207",
"z@	c #3C4872",
"A@	c #414F9D",
"B@	c #48549A",
"C@	c #374389",
"D@	c #464F8A",
"E@	c #6A6F9D",
"F@	c #9BA1C1",
"G@	c #70789C",
"H@	c #797FA0",
"I@	c #3C4071",
"J@	c #16194E",
"K@	c #8085A1",
"L@	c #202656",
"M@	c #1F275C",
"N@	c #292E5F",
"O@	c #383C68",
"P@	c #616B92",
"Q@	c #707A7B",
"R@	c #88909A",
"S@	c #7F8896",
"T@	c #313E4D",
"U@	c #141925",
"V@	c #000005",
"W@	c #7280C0",
"X@	c #2F4091",
"Y@	c #3B4590",
"Z@	c #4F5A97",
"`@	c #47508B",
" #	c #38407E",
".#	c #333976",
"+#	c #5A608D",
"@#	c #545988",
"##	c #6B7096",
"$#	c #686D92",
"%#	c #61648B",
"&#	c #5E618A",
"*#	c #676F92",
"=#	c #636B93",
"-#	c #758296",
";#	c #9BA3AF",
">#	c #929BA8",
",#	c #445161",
"'#	c #232E40",
")#	c #010206",
"!#	c #1C2139",
"~#	c #707DBF",
"{#	c #394593",
"]#	c #404E92",
"^#	c #424C8C",
"/#	c #404987",
"(#	c #47518A",
"_#	c #444982",
":#	c #525A8D",
"<#	c #41487C",
"[#	c #7E82A8",
"}#	c #616793",
"|#	c #7B82A5",
"1#	c #8B90B1",
"2#	c #8B92B6",
"3#	c #A6AAB7",
"4#	c #54656C",
"5#	c #263847",
"6#	c #2C394A",
"7#	c #0E101C",
"8#	c #343B5B",
"9#	c #6977BC",
"0#	c #404C98",
"a#	c #404D95",
"b#	c #3E478F",
"c#	c #343E82",
"d#	c #363E7E",
"e#	c #3C457F",
"f#	c #4D538B",
"g#	c #8890B4",
"h#	c #7A7FA9",
"i#	c #858BAF",
"j#	c #9CA4C1",
"k#	c #A2A9C4",
"l#	c #7481A5",
"m#	c #585D6E",
"n#	c #454E63",
"o#	c #272D49",
"p#	c #8492CB",
"q#	c #5C66A9",
"r#	c #4B579A",
"s#	c #4B5599",
"t#	c #5B679F",
"u#	c #6972A5",
"v#	c #989FC3",
"w#	c #999FC2",
"x#	c #7881AD",
"y#	c #6F77A5",
"z#	c #999DC0",
"A#	c #8992B4",
"B#	c #8089AE",
"C#	c #636A8C",
"D#	c #1C1E2F",
"E#	c #000101",
"F#	c #060814",
"G#	c #6D79A4",
"H#	c #5F6FB3",
"I#	c #5160A4",
"J#	c #6B75AD",
"K#	c #5C66A3",
"L#	c #606AA1",
"M#	c #58629B",
"N#	c #5E669D",
"O#	c #717AA8",
"P#	c #828BB2",
"Q#	c #747AAC",
"R#	c #364167",
"S#	c #060812",
"T#	c #111524",
"U#	c #2C3361",
"V#	c #4B5790",
"W#	c #6F7AB0",
"X#	c #5C68A5",
"Y#	c #54609C",
"Z#	c #495691",
"`#	c #475085",
" $	c #32385D",
".$	c #0B101D",
"    .           + @ # $ % & * = -     .   .     ",
"            ; > , ' ) ! ~ { ] ^ / ( _           ",
".       : < [ } | 1 2 3 4 5 6 7 8 9 0 a   b   . ",
".     c d e f g h i j k l m n o p q r s t       ",
"  b u v w x y z A B C D E F G H n I J K L M     ",
"    N O P Q R S T U V W X Y Z `  ...+.@.#.$..   ",
"  %.&.*.=.-.;.>.,.'.).!.~.{.].^./.(._.:.<.[.}.  ",
"  |.1.2.3.4.5.6.7.8.9.0.a.b.c.d.e.f.g.h.i.j.k.l.",
"m.n.o.p.q.r.s.t.u.v.w.x.y.z.A.B.C.D.E.F.G.H.I.J.",
"K.L.M.N.O.P.Q.R.S.T.U.V.W.X.Y.Z.`. +.+++@+#+$+%+",
"&+*+=+-+;+>+,+'+>+)+>+!+~+>+{+]+^+/+>+(+_+:+<+[+",
"}+|+>+1+2+3+4+5+>+6+7+8+9+>+0+a+b+Z.>+c+d+e+f+[+",
"g+h+>+i+j+k+l+m+n+o+>+p+q+>+r+s+t+u+>+v+w+x+y+z+",
"A+B+>+C+D+>+E+F+G+  H+I+J+>+K+L+M+N+>+O+P+Q+R+S+",
"T+U+V+W+X+Y+Z+`+ @.@+@@@#@$@%@&@*@=@-@;@>@,@'@)@",
"!@~@{@]@^@/@(@_@:@<@[@}@|@1@2@3@4@5@6@7@8@9@0@a@",
"b@c@d@e@f@g@h@i@j@k@l@m@n@o@p@q@r@s@t@u@v@w@x@y@",
"  z@A@B@C@D@E@F@G@H@I@J@K@L@M@N@O@P@Q@R@S@T@U@  ",
". V@W@X@Y@Z@`@ #.#+#@###$#%#&#*#=#-#;#>#,#'#)#. ",
".   !#~#{#]#^#/#(#_#:#<#[#}#|#1#2#3#4#5#6#7#    ",
"  b   8#9#0#a#b#c#d#e#f#g#h#i#j#k#l#m#n#*     . ",
"        o#p#q#r#s#t#u#v#w#x#y#z#A#B#C#D#      . ",
"E#    .   F#G#H#I#J#K#L#M#N#O#P#Q#R#S#      .   ",
"        .     T#U#V#W#X#Y#Z#`# $.$  . .       . "};
