/* XPM */
static char * osee_32x32_xpm[] = {
"32 31 796 2",
"  	c #000001",
". 	c #000000",
"+ 	c #000002",
"@ 	c #05060B",
"# 	c #0F111A",
"$ 	c #1C202F",
"% 	c #232736",
"& 	c #252B3B",
"* 	c #262A39",
"= 	c #1A2133",
"- 	c #151B2A",
"; 	c #0B0F1C",
"> 	c #06070F",
", 	c #020205",
"' 	c #0E1220",
") 	c #313549",
"! 	c #4A4F66",
"~ 	c #51586B",
"{ 	c #545B6E",
"] 	c #535A6D",
"^ 	c #50566A",
"/ 	c #4A4F63",
"( 	c #444759",
"_ 	c #3D4050",
": 	c #2E3446",
"< 	c #242A3D",
"[ 	c #1F2139",
"} 	c #191C2A",
"| 	c #010306",
"1 	c #000102",
"2 	c #0B0E1E",
"3 	c #2F364F",
"4 	c #454C61",
"5 	c #5A617D",
"6 	c #6F758D",
"7 	c #7B8294",
"8 	c #7C8294",
"9 	c #7C8093",
"0 	c #777A8C",
"a 	c #6D7385",
"b 	c #5B6175",
"c 	c #495063",
"d 	c #495060",
"e 	c #444855",
"f 	c #313646",
"g 	c #242B3F",
"h 	c #22283E",
"i 	c #0C0D1C",
"j 	c #010103",
"k 	c #282E4A",
"l 	c #52607F",
"m 	c #67728F",
"n 	c #797F9C",
"o 	c #7C8397",
"p 	c #82889B",
"q 	c #737893",
"r 	c #8389A0",
"s 	c #6F7486",
"t 	c #838895",
"u 	c #818394",
"v 	c #6E7081",
"w 	c #545A6C",
"x 	c #61657D",
"y 	c #363C5A",
"z 	c #4D5663",
"A 	c #3F4455",
"B 	c #202539",
"C 	c #131A30",
"D 	c #161A2D",
"E 	c #020608",
"F 	c #010000",
"G 	c #03050E",
"H 	c #3C466A",
"I 	c #677099",
"J 	c #737D9F",
"K 	c #949DB2",
"L 	c #9197A4",
"M 	c #8D95A0",
"N 	c #7F8792",
"O 	c #838B93",
"P 	c #686E7D",
"Q 	c #6A6F7E",
"R 	c #7D818B",
"S 	c #858A99",
"T 	c #848790",
"U 	c #5B6375",
"V 	c #43495E",
"W 	c #444A5B",
"X 	c #2F3754",
"Y 	c #3F495C",
"Z 	c #32384B",
"` 	c #262A3E",
" .	c #171C35",
"..	c #151D35",
"+.	c #04070F",
"@.	c #4E5779",
"#.	c #7983A7",
"$.	c #67739B",
"%.	c #7883A7",
"&.	c #6A7692",
"*.	c #687493",
"=.	c #969BAA",
"-.	c #959CA5",
";.	c #A6A9B2",
">.	c #80868D",
",.	c #989CA6",
"'.	c #5F6166",
").	c #626669",
"!.	c #7E818A",
"~.	c #757D90",
"{.	c #444A66",
"].	c #424859",
"^.	c #2A3050",
"/.	c #50576E",
"(.	c #4C5167",
"_.	c #31364C",
":.	c #21263A",
"<.	c #1D2338",
"[.	c #191F38",
"}.	c #03040A",
"|.	c #010002",
"1.	c #464E6F",
"2.	c #7B85AD",
"3.	c #787FAA",
"4.	c #8A92B0",
"5.	c #757EA4",
"6.	c #8289AA",
"7.	c #9A9FB8",
"8.	c #9098B2",
"9.	c #A8AEB5",
"0.	c #5E6866",
"a.	c #707978",
"b.	c #7F8889",
"c.	c #A2A3AB",
"d.	c #6A6A6F",
"e.	c #41475E",
"f.	c #313D67",
"g.	c #3E4B70",
"h.	c #363A45",
"i.	c #4E5358",
"j.	c #555B63",
"k.	c #565B6C",
"l.	c #475066",
"m.	c #131938",
"n.	c #252B3D",
"o.	c #191E36",
"p.	c #151A2E",
"q.	c #010204",
"r.	c #11192F",
"s.	c #434E88",
"t.	c #626C9B",
"u.	c #7D86AD",
"v.	c #616C97",
"w.	c #69729A",
"x.	c #B1B6C9",
"y.	c #979CB4",
"z.	c #767E9A",
"A.	c #B6BAC1",
"B.	c #616D67",
"C.	c #878E8B",
"D.	c #CACED2",
"E.	c #A2AAAB",
"F.	c #919A95",
"G.	c #2F3B2E",
"H.	c #454E4C",
"I.	c #3D4556",
"J.	c #394B61",
"K.	c #545A5C",
"L.	c #555B5C",
"M.	c #4D5559",
"N.	c #2C3547",
"O.	c #0D153D",
"P.	c #202842",
"Q.	c #11142E",
"R.	c #171D34",
"S.	c #0E111F",
"T.	c #010206",
"U.	c #323E79",
"V.	c #616C9E",
"W.	c #4B5890",
"X.	c #353F77",
"Y.	c #3C467D",
"Z.	c #757BA1",
"`.	c #9DA3BC",
" +	c #61688D",
".+	c #5D6389",
"++	c #9BA2AA",
"@+	c #9DA4A0",
"#+	c #C2C7C7",
"$+	c #C0C1BF",
"%+	c #6C7261",
"&+	c #485541",
"*+	c #3C493A",
"=+	c #374136",
"-+	c #5A6352",
";+	c #717B7E",
">+	c #606667",
",+	c #434E4B",
"'+	c #2D3B4C",
")+	c #162041",
"!+	c #131C3D",
"~+	c #1D2544",
"{+	c #171D37",
"]+	c #10132B",
"^+	c #121833",
"/+	c #02050A",
"(+	c #192344",
"_+	c #4A5494",
":+	c #414B88",
"<+	c #2A3478",
"[+	c #414B84",
"}+	c #6A72A0",
"|+	c #888EAF",
"1+	c #9BA0BC",
"2+	c #777B9F",
"3+	c #6D7296",
"4+	c #9FA8AF",
"5+	c #727869",
"6+	c #878B81",
"7+	c #7E7964",
"8+	c #5E6149",
"9+	c #516447",
"0+	c #59624D",
"a+	c #7B857E",
"b+	c #545E67",
"c+	c #BCBFC0",
"d+	c #6E7971",
"e+	c #3C4D3B",
"f+	c #42534A",
"g+	c #293449",
"h+	c #161D46",
"i+	c #161E42",
"j+	c #272D49",
"k+	c #080C27",
"l+	c #10162C",
"m+	c #0C1225",
"n+	c #030407",
"o+	c #2F3A74",
"p+	c #354383",
"q+	c #344080",
"r+	c #3D4885",
"s+	c #575D93",
"t+	c #A5AFC8",
"u+	c #6C729B",
"v+	c #B9C0CE",
"w+	c #A2A8BB",
"x+	c #B9BFCB",
"y+	c #D4D6D7",
"z+	c #B8B7B1",
"A+	c #8D8E7F",
"B+	c #636148",
"C+	c #646146",
"D+	c #4A5231",
"E+	c #475536",
"F+	c #55654A",
"G+	c #979FA5",
"H+	c #637072",
"I+	c #5C6966",
"J+	c #47554A",
"K+	c #1A293C",
"L+	c #030F42",
"M+	c #2E3558",
"N+	c #272C4D",
"O+	c #2B304E",
"P+	c #0C112E",
"Q+	c #0F1429",
"R+	c #0F142E",
"S+	c #030306",
"T+	c #0A0D1A",
"U+	c #354387",
"V+	c #454D8E",
"W+	c #535E98",
"X+	c #30365D",
"Y+	c #2C303F",
"Z+	c #61626D",
"`+	c #8185A5",
" @	c #707599",
".@	c #A8AABF",
"+@	c #717A95",
"@@	c #4A4D42",
"#@	c #342E27",
"$@	c #2B291D",
"%@	c #655F45",
"&@	c #786D4B",
"*@	c #525534",
"=@	c #2B341E",
"-@	c #262F1A",
";@	c #32392C",
">@	c #424A42",
",@	c #555B5D",
"'@	c #999F9C",
")@	c #4C5364",
"!@	c #22283C",
"~@	c #18192F",
"{@	c #2A2D41",
"]@	c #171932",
"^@	c #070C21",
"/@	c #0F132D",
"(@	c #0D122C",
"_@	c #060810",
":@	c #161D38",
"<@	c #39448B",
"[@	c #5B6698",
"}@	c #3E4256",
"|@	c #999796",
"1@	c #CFCFCF",
"2@	c #B9BAB9",
"3@	c #464742",
"4@	c #535562",
"5@	c #9094AC",
"6@	c #1B1F29",
"7@	c #959596",
"8@	c #D7D6D8",
"9@	c #C7C7C6",
"0@	c #6B6A6B",
"a@	c #4A4C39",
"b@	c #39382D",
"c@	c #A1A2A2",
"d@	c #A7A8A8",
"e@	c #A9A8A7",
"f@	c #A7A6A7",
"g@	c #ADACAA",
"h@	c #404142",
"i@	c #7E7D7B",
"j@	c #ABA9A9",
"k@	c #AAAAA7",
"l@	c #A9A9A8",
"m@	c #AAA9A7",
"n@	c #9B9D9A",
"o@	c #1A1B28",
"p@	c #0E122C",
"q@	c #0A0F1D",
"r@	c #242C56",
"s@	c #3F4D96",
"t@	c #323548",
"u@	c #E6E6E6",
"v@	c #FFFFFD",
"w@	c #FDFBFC",
"x@	c #FFFFFF",
"y@	c #8E8F8E",
"z@	c #16181C",
"A@	c #C3C3C4",
"B@	c #979898",
"C@	c #EEEEED",
"D@	c #4D4F4E",
"E@	c #373730",
"F@	c #F8F7F8",
"G@	c #FEFEFC",
"H@	c #FAFAFB",
"I@	c #FBFBFC",
"J@	c #525452",
"K@	c #ADADAE",
"L@	c #FAFCFC",
"M@	c #FAFAFA",
"N@	c #E6E6E7",
"O@	c #1E2129",
"P@	c #10142E",
"Q@	c #0E142A",
"R@	c #293769",
"S@	c #2E3877",
"T@	c #73716B",
"U@	c #B6B6B8",
"V@	c #444651",
"W@	c #545559",
"X@	c #F4F3F3",
"Y@	c #E7E9E8",
"Z@	c #0F0C0F",
"`@	c #F9F9F9",
" #	c #696868",
".#	c #6C6C69",
"+#	c #686767",
"@#	c #63594D",
"##	c #393633",
"$#	c #F8F8F8",
"%#	c #DDDDDD",
"&#	c #1A1A19",
"*#	c #101010",
"=#	c #101011",
"-#	c #ABACAB",
";#	c #676768",
">#	c #0F0D0D",
",#	c #111111",
"'#	c #090909",
")#	c #161931",
"!#	c #11152D",
"~#	c #0F152C",
"{#	c #3A4377",
"]#	c #171E44",
"^#	c #BEBEB8",
"/#	c #707076",
"(#	c #5D618C",
"_#	c #76777E",
":#	c #DCDCDB",
"<#	c #F4F4F3",
"[#	c #46474B",
"}#	c #555756",
"|#	c #FDFDFD",
"1#	c #FFFEFD",
"2#	c #FFFEFF",
"3#	c #F0F2F1",
"4#	c #252626",
"5#	c #433E39",
"6#	c #F7F8F6",
"7#	c #FEFEFE",
"8#	c #FFFEFE",
"9#	c #FEFEFF",
"0#	c #040607",
"a#	c #AAAAAA",
"b#	c #FEFFFD",
"c#	c #D2D2D3",
"d#	c #181D30",
"e#	c #131634",
"f#	c #0E142C",
"g#	c #3B477B",
"h#	c #242C59",
"i#	c #A7A6A3",
"j#	c #858688",
"k#	c #242859",
"l#	c #3F424F",
"m#	c #E5E5E3",
"n#	c #EEEFEF",
"o#	c #3A3A40",
"p#	c #5E5F62",
"q#	c #383738",
"r#	c #676767",
"s#	c #B3B4B5",
"t#	c #C5C6C6",
"u#	c #383630",
"v#	c #F7F8F7",
"w#	c #E0E0E0",
"x#	c #42424B",
"y#	c #3E3F45",
"z#	c #3E3E4A",
"A#	c #020310",
"B#	c #ACABAB",
"C#	c #787677",
"D#	c #40424A",
"E#	c #4C4E55",
"F#	c #33343E",
"G#	c #181C3B",
"H#	c #131834",
"I#	c #181D31",
"J#	c #353F69",
"K#	c #5B64A8",
"L#	c #383934",
"M#	c #F0F1F0",
"N#	c #636261",
"O#	c #A9AAA8",
"P#	c #FEFFFF",
"Q#	c #D1D2D2",
"R#	c #161612",
"S#	c #FBFBFB",
"T#	c #111112",
"U#	c #6E6E6E",
"V#	c #AFB0B1",
"W#	c #3E3B35",
"X#	c #F7F8F8",
"Y#	c #EEEFEE",
"Z#	c #929196",
"`#	c #8D8E8F",
" $	c #929292",
".$	c #353735",
"+$	c #A9A9AA",
"@$	c #B7B7B9",
"#$	c #8B8D8A",
"$$	c #8E8E90",
"%$	c #838382",
"&$	c #1E2335",
"*$	c #191E3D",
"=$	c #171B2C",
"-$	c #242B4D",
";$	c #9EA9D7",
">$	c #6C718C",
",$	c #727172",
"'$	c #DEE0DE",
")$	c #F7F7F6",
"!$	c #B1B1AB",
"~$	c #2E2E40",
"{$	c #0A0D26",
"]$	c #61615C",
"^$	c #E1E0E1",
"/$	c #FCFCFC",
"($	c #B7B8B8",
"_$	c #252A1C",
":$	c #3D3C33",
"<$	c #E0DEE1",
"[$	c #E6E4E6",
"}$	c #EBEBEA",
"|$	c #E8E9E8",
"1$	c #F1F1F2",
"2$	c #616262",
"3$	c #9C9C9D",
"4$	c #E7E7E5",
"5$	c #EAE9E8",
"6$	c #ECECEB",
"7$	c #DFDEDC",
"8$	c #232732",
"9$	c #171B3B",
"0$	c #0A1020",
"a$	c #0C1127",
"b$	c #7780BF",
"c$	c #D9E4F9",
"d$	c #7B80AA",
"e$	c #0D1125",
"f$	c #030310",
"g$	c #050513",
"h$	c #0D113C",
"i$	c #1B2161",
"j$	c #2E3266",
"k$	c #383963",
"l$	c #171723",
"m$	c #0E0E0C",
"n$	c #121212",
"o$	c #32303F",
"p$	c #3A405C",
"q$	c #2B3922",
"r$	c #151B0B",
"s$	c #1D211B",
"t$	c #20221F",
"u$	c #383A36",
"v$	c #2D2E2F",
"w$	c #312F47",
"x$	c #090A1F",
"y$	c #070615",
"z$	c #090A18",
"A$	c #090C15",
"B$	c #0F1219",
"C$	c #080D1A",
"D$	c #1F274B",
"E$	c #0D1531",
"F$	c #060914",
"G$	c #47589B",
"H$	c #626CB0",
"I$	c #6E77B2",
"J$	c #6D78B1",
"K$	c #454E94",
"L$	c #484F8E",
"M$	c #4C5288",
"N$	c #5C6391",
"O$	c #4B4D7E",
"P$	c #757999",
"Q$	c #3E406D",
"R$	c #626485",
"S$	c #555576",
"T$	c #5F627E",
"U$	c #34345B",
"V$	c #131549",
"W$	c #3D4360",
"X$	c #5D677F",
"Y$	c #424D5D",
"Z$	c #5D6866",
"`$	c #9CA994",
" %	c #6B6F8D",
".%	c #2A2F5D",
"+%	c #414668",
"@%	c #67737F",
"#%	c #687472",
"$%	c #5C686D",
"%%	c #3F4B53",
"&%	c #2D404C",
"*%	c #162136",
"=%	c #030408",
"-%	c #3C4478",
";%	c #4454A6",
">%	c #5762A7",
",%	c #31428A",
"'%	c #444F90",
")%	c #494F8A",
"!%	c #666E9F",
"~%	c #484E84",
"{%	c #3F417A",
"]%	c #2F346B",
"^%	c #5F6389",
"/%	c #4E507A",
"(%	c #242657",
"_%	c #232655",
":%	c #4C5075",
"<%	c #181A4A",
"[%	c #171949",
"}%	c #080B43",
"|%	c #1C2153",
"1%	c #26346A",
"2%	c #555E77",
"3%	c #9BA5A7",
"4%	c #697487",
"5%	c #687773",
"6%	c #798184",
"7%	c #7A8289",
"8%	c #4E5B61",
"9%	c #43505A",
"0%	c #252E3C",
"a%	c #141B27",
"b%	c #0D1023",
"c%	c #6173B8",
"d%	c #3E4D98",
"e%	c #4E5A9E",
"f%	c #2E3B86",
"g%	c #3D478A",
"h%	c #555E95",
"i%	c #7F86AF",
"j%	c #949ABC",
"k%	c #6B719B",
"l%	c #7A82A4",
"m%	c #72789B",
"n%	c #505581",
"o%	c #282A5D",
"p%	c #111349",
"q%	c #65698C",
"r%	c #4A4F76",
"s%	c #070E44",
"t%	c #1F295E",
"u%	c #353B6B",
"v%	c #2D3461",
"w%	c #444872",
"x%	c #5F688F",
"y%	c #727C7C",
"z%	c #7D878A",
"A%	c #878F9C",
"B%	c #7C8595",
"C%	c #414D5C",
"D%	c #1F2938",
"E%	c #06090E",
"F%	c #36416A",
"G%	c #5563AC",
"H%	c #324391",
"I%	c #49549A",
"J%	c #3A448B",
"K%	c #485194",
"L%	c #3A4282",
"M%	c #474C86",
"N%	c #6A71A0",
"O%	c #5D6291",
"P%	c #505583",
"Q%	c #36396F",
"R%	c #5E628F",
"S%	c #787E9F",
"T%	c #A4A5BE",
"U%	c #9195B1",
"V%	c #777B9D",
"W%	c #898AA9",
"X%	c #8489A7",
"Y%	c #848BA9",
"Z%	c #707696",
"`%	c #747D93",
" &	c #98A1A6",
".&	c #999FAB",
"+&	c #959CAD",
"@&	c #5B6776",
"#&	c #1C293A",
"$&	c #141B2A",
"%&	c #05060D",
"&&	c #7783BA",
"*&	c #42529E",
"=&	c #354291",
"-&	c #39468E",
";&	c #4D5895",
">&	c #4B5494",
",&	c #525C95",
"'&	c #313978",
")&	c #3E4681",
"!&	c #68709E",
"~&	c #4D5585",
"{&	c #535989",
"]&	c #6B7198",
"^&	c #646D90",
"/&	c #60678D",
"(&	c #43497A",
"_&	c #3C4576",
":&	c #606791",
"<&	c #4F5785",
"[&	c #6D77A0",
"}&	c #9EA6AF",
"|&	c #73818A",
"1&	c #5C6974",
"2&	c #3E4E5F",
"3&	c #253645",
"4&	c #252D42",
"5&	c #0E1127",
"6&	c #8892CB",
"7&	c #4F5BA7",
"8&	c #35438F",
"9&	c #425093",
"0&	c #394387",
"a&	c #364082",
"b&	c #3D4584",
"c&	c #444D8A",
"d&	c #363B77",
"e&	c #40467F",
"f&	c #5B6295",
"g&	c #41497B",
"h&	c #777AA3",
"i&	c #828AAF",
"j&	c #5E6390",
"k&	c #9399B8",
"l&	c #9B9EBC",
"m&	c #A1A8C1",
"n&	c #99A0C2",
"o&	c #9497A7",
"p&	c #65747D",
"q&	c #273847",
"r&	c #2C3E4C",
"s&	c #2D3649",
"t&	c #0B0C1A",
"u&	c #1B2035",
"v&	c #8391C9",
"w&	c #44519F",
"x&	c #3E4A96",
"y&	c #414D96",
"z&	c #3B458D",
"A&	c #434C91",
"B&	c #323A81",
"C&	c #2E357A",
"D&	c #404985",
"E&	c #38427B",
"F&	c #565C91",
"G&	c #8F95B8",
"H&	c #787FA9",
"I&	c #8388AF",
"J&	c #8188AC",
"K&	c #939BBC",
"L&	c #A6ACC6",
"M&	c #97A0C0",
"N&	c #7581A1",
"O&	c #595F70",
"P&	c #525567",
"Q&	c #354159",
"R&	c #000100",
"S&	c #161D33",
"T&	c #7B88BD",
"U&	c #5B6AAE",
"V&	c #4B549F",
"W&	c #4F599C",
"X&	c #5762A0",
"Y&	c #545E9D",
"Z&	c #576299",
"`&	c #656FA2",
" *	c #5D659E",
".*	c #848BB5",
"+*	c #969BBD",
"@*	c #757EA7",
"#*	c #6D75A3",
"$*	c #7D86AC",
"%*	c #A0A5C5",
"&*	c #979CBE",
"**	c #8C95B6",
"=*	c #8591B3",
"-*	c #687095",
";*	c #575A76",
">*	c #111622",
",*	c #070917",
"'*	c #505A87",
")*	c #A9B5E7",
"!*	c #707AB8",
"~*	c #3B4B91",
"{*	c #5361A0",
"]*	c #6973AB",
"^*	c #7279B0",
"/*	c #7E88B6",
"(*	c #9097BE",
"_*	c #848CB8",
":*	c #7A82B2",
"<*	c #6E75A7",
"[*	c #5E649A",
"}*	c #7378A8",
"|*	c #898FB8",
"1*	c #767FA8",
"2*	c #636F9A",
"3*	c #353C59",
"4*	c #526296",
"5*	c #5965AA",
"6*	c #515EA7",
"7*	c #5C68A8",
"8*	c #5C67A3",
"9*	c #515C9D",
"0*	c #465192",
"a*	c #414D8D",
"b*	c #4C5693",
"c*	c #576399",
"d*	c #808AB6",
"e*	c #858EB6",
"f*	c #757FAA",
"g*	c #323B6B",
"h*	c #0F1326",
"i*	c #000205",
"j*	c #10121F",
"k*	c #21274C",
"l*	c #404A7C",
"m*	c #616DA1",
"n*	c #6A75AF",
"o*	c #5F6DA9",
"p*	c #5C68A4",
"q*	c #4E5C98",
"r*	c #424E84",
"s*	c #3B4373",
"t*	c #222845",
"u*	c #0D0F19",
"  . . . . . . . . . + @ # $ % & * = - ; > , . . .   . .   . .   ",
". . .   . . . . + ' ) ! ~ { ] ^ / ( _ : < [ } | . . . . . . . . ",
".   . .   1 . 2 3 4 5 6 7 8 9 0 a b c d e f g h i j .     . . . ",
". . . . .   k l m n o p q r s t u v w x y z A B C D E . F   .   ",
"F . . . G H I J K L M N O P Q R S T U V W X Y Z `  ...+..   . . ",
". F . . @.#.$.%.&.*.=.-.;.>.,.'.).!.~.{.].^./.(._.:.<.[.}.  . . ",
". . |.1.2.3.4.5.6.7.8.9.0.a.b.c.d.e.f.g.h.i.j.k.l.m.n.o.p.q..   ",
". . r.s.t.u.v.w.x.y.z.A.B.C.D.E.F.G.H.I.J.K.L.M.N.O.P.Q.R.S.. . ",
". T.U.V.W.X.Y.Z.`. +.+++@+#+$+%+&+*+=+-+;+>+,+'+)+!+~+{+]+^+/+. ",
"  (+_+:+<+[+}+|+1+2+3+4+5+6+7+8+9+0+a+b+c+d+e+f+g+h+i+j+k+l+m++ ",
"n+o+p+q+r+s+t+u+v+w+x+y+z+A+B+C+D+E+F+G+H+I+J+K+L+M+N+O+P+Q+R+S+",
"T+U+V+W+X+Y+Z+`+ @.@+@@@#@$@%@&@*@=@-@;@>@,@'@)@!@~@{@]@^@/@(@_@",
":@<@[@}@|@1@2@3@4@5@6@7@8@9@0@a@b@c@d@e@f@g@h@i@j@k@l@m@n@o@p@q@",
"r@s@t@u@v@w@v@x@y@z@A@x@B@C@x@D@E@F@G@H@I@x@J@K@x@L@M@M@N@O@P@Q@",
"R@S@T@x@U@V@W@X@Y@Z@x@`@ #.#+#@###$#%#&#*#=#. -#x@;#>#,#'#)#!#~#",
"{#]#^#x@/#(#_#:#<#[#}#|#1#2#3#4#5#6#7#8#9#x@0#a#x@b#9#v@c#d#e#f#",
"g#h#i#x@j#k#l#m#n#o#p#q#r#s#x@t#u#v#w#x#y#z#A#B#x@C#D#E#F#G#H#I#",
"J#K#L#x@M#N#O#P#Q#R#x@S#T#U#x@V#W#X#Y#Z#`# $.$+$x@@$#$$$%$&$*$=$",
"-$;$>$,$'$x@)$!$~${$]$^$x@/$($_$:$<$[$}$|$1$2$3$4$5$6$6$7$8$9$0$",
"a$b$c$d$e$f$g$h$i$j$k$l$m$n$o$p$q$r$s$t$u$v$w$x$y$z$A$B$C$D$E$F$",
"> G$H$I$J$K$L$M$N$O$P$Q$R$S$T$U$V$W$X$Y$Z$`$ %.%+%@%#%$%%%&%*%=%",
". -%;%>%,%'%)%!%~%{%]%^%/%(%_%:%<%[%}%|%1%2%3%4%5%6%7%8%9%0%a%|.",
". b%c%d%e%f%g%h%i%j%k%l%m%n%o%p%q%r%s%t%u%v%w%x%y%z%A%B%C%D%E%. ",
"  . F%G%H%I%J%K%L%M%N%O%P%Q%R%S%T%U%V%W%X%Y%Z%`% &.&+&@&#&$&. . ",
". + %&&&*&=&-&;&>&,&'&)&!&~&{&]&^&/&(&_&:&<&[&}&|&1&2&3&4&=%. . ",
".   . 5&6&7&8&9&0&a&b&c&d&e&f&g&h&i&j&k&l&m&n&o&p&q&r&s&t&. . . ",
". . . . u&v&w&x&y&z&A&B&C&D&E&F&G&H&I&J&K&L&M&N&O&P&Q&; . .   . ",
"R&. . . . S&T&U&V&W&X&Y&Z&`& *.*+*@*#*$*%*&***=*-*;*>*. . . . . ",
"  . . .   . ,*'*)*!*~*{*]*^*/*(*_*:*<*[*}*|*1*2*3*> . . .   . . ",
"  . . .   . R&. ^+4*5*6*7*8*9*0*a*b*c*d*e*f*g*h*. . . . .   . . ",
". . . . .     . . i*j*k*l*m*n*o*p*q*r*s*t*u*T..       . . . . . "};
